<?xml version="1.0" encoding="utf-8" ?><svg xmlns="http://www.w3.org/2000/svg" xmlns:xlink="http://www.w3.org/1999/xlink" width="1024" height="1024" viewBox="0 0 1024 1024"><path fill="#64109E" d="M291.622 174.746C349.525 174.258 407.432 174.379 465.332 175.11C468.24 179.617 471.559 186.275 474.151 191.126L488.615 218.218L537.392 310.238L645.108 512.003C667.408 553.879 689.863 597.253 712.791 638.707C714.074 626.814 719.531 605.51 722.333 592.947C727.198 570.555 731.94 548.136 736.56 525.692C738.85 514.798 742.65 498.913 743.401 488.314C744.657 470.589 742.144 448.182 735.941 431.505C730.821 417.739 721.894 402.176 714.627 389.217C707.683 376.884 700.876 364.474 694.207 351.989L599.066 175.01L686.65 174.819C710.837 174.841 741.481 173.292 764.199 179.576C804.157 190.776 838.015 217.419 858.297 253.624C872.247 278.786 878.607 307.452 876.607 336.152C875.544 353.73 866.484 389.766 862.25 408.373L834.74 529.421L785.723 744.954L770.408 814.53C767.911 825.743 765.164 839.474 762.065 850.391L728.75 850.406L562.158 850.419C556.521 840.74 550.474 828.193 544.87 817.905C527.14 785.349 509.587 752.697 492.211 719.951L360.517 475.109L326.394 411.459C321.708 402.818 316.795 393.265 311.839 384.872C305.808 409.442 300.547 435.36 295.477 460.312C289.601 491.303 279.856 520.409 280.839 552.248C281.78 582.712 292.888 601.715 306.801 627.166L326.498 663.804L391.963 786.689L412.464 825.269C416.802 833.335 421.874 842.075 425.783 850.267C405.054 850.984 380.788 850.377 359.757 850.392L319.228 850.412C298.266 850.419 281.466 850.901 260.764 845.567C221.225 835.217 187.419 809.581 166.784 774.302C152.089 748.906 144.951 719.842 146.209 690.527C147.151 670.876 155.416 641.164 160.01 621.184L186.428 506.66L241.467 266.18C248.432 236.339 254.744 204.168 262.518 174.897C271.59 174.555 282.417 174.783 291.622 174.746Z"/></svg>